<svg xmlns="http://www.w3.org/2000/svg" viewBox="0 0 34.791534 10.004778">
  <g aria-label="Point." style="line-height:1.25" font-weight="400" font-size="53.33333588" font-family="sans-serif" letter-spacing="0"
    word-spacing="0">
    <path d="M4.45911154-9.5e-7q.71966666 0 1.35466665.2822231.63499999.26811023 1.11477688.74788976.47977954.46566666.74788976 1.10066666.2822231.63499999.2822231 1.35466665 0 .71966665-.2822231 1.35466664-.26811022.635-.74788976 1.10066666-.47977689.46566666-1.11477688.74788711-.635.26811287-1.35466665.26811287H3.35844489L2.28600134 4.9812221h2.1731102q.31044356 0 .57855643-.11288978.28222045-.127.47977689-.33866666.19755643-.2257769.31044356-.52211022.127-.31044356.127-.67733333 0-.31044356-.127-.59266666-.11288713-.29633333-.31044356-.52211022-.19755644-.22577954-.4797769-.36688976-.26811286-.14111023-.57855642-.14111023H1.9614449v8.17033323H-.00000128V-9.5e-7zM11.8767052 2.70933235q.76199999 0 1.42522308.29633333.66322045.2822231 1.15711022.77611286.49388976.49388712.77611022 1.15711022.29633333.6632231.29633333 1.41111021 0 .74788976-.29633333 1.41111286-.28222046.66322045-.77611022 1.15711021-.49388977.49388977-1.15711022.7902231-.6632231.2822231-1.42522308.2822231-.762 0-1.4252231-.2822231-.66322044-.29633333-1.1571102-.7902231-.49388977-.49388976-.7902231-1.15711021-.28222045-.6632231-.28222045-1.41111286 0-.74788711.28222045-1.41111021.29633333-.6632231.7902231-1.15711022.49388976-.49388976 1.1571102-.77611286.6632231-.29633333 1.4252231-.29633333zm0 5.6021128q.35277689 0 .64911022-.1552231.3104462-.1552231.5362231-.42333333.23988976-.2822231.36688976-.63499999.14111023-.36688976.14111023-.7902231 0-.39511022-.14111023-.7478871-.127-.36688977-.36688977-.62088977-.22577689-.26811023-.5362231-.42333333-.29633332-.1552231-.64911021-.1552231-.3527769 0-.6632231.1552231-.31044356.1552231-.55033333.42333333-.22577689.254-.36688712.62088976-.127.3527769-.127.74788712 0 .42333333.127.7902231.14111023.35277688.36688712.63499998.23988977.26811023.55033333.42333333.3104462.1552231.6632231.1552231zM16.24541783 9.87777847V2.82222212h1.87677687v7.05555635zm0-9.87777942h1.87677687v1.65099998h-1.87677687zM18.97393342 2.82222212h1.9191102v7.05555635h-1.9191102zm6.51933325.81844355q.3527769.4374462.508 1.10066665.1552231.6632231.1552231 1.63688975v3.4995564H24.2373769v-3.4995564q0-.39511022-.02822045-.74788976-.0141023-.36688712-.14111288-.63499999-.127-.28222045-.40922045-.43744356-.2822231-.1552231-.80433332-.1552231-.49388977 0-.9172231.21166667v.01410229l-.01410229-.0141023-.6914462-1.22766665.0141023-.01410229q.73377688-.6632231 1.83444353-.6632231 1.69333332 0 2.41299997.93133333zM31.84965892 3.555999v1.56633332h-1.04422044l-.87488976-1.56633331zm-2.15899997 3.9087795q0 .32455379.22577954.55033332.23988712.2257769.56444355.2257769h1.36877688v1.63688975h-1.36877688q-.55033332 0-1.04422309-.19755644-.47977689-.21166666-.84666665-.56444355-.3527769-.36688977-.56444356-.84666666-.21166666-.47977953-.21166666-1.03011286V5.12233232h-1.01599999V3.55599901h1.01599999V1.0018888h1.87677687z"
      fill="#3f70a4" />
    <path d="M33.69028048 7.77522206q.46566666 0 .7902231.32455643.32455378.32455379.31044356.7902231 0 .46566666-.33866667.79022044-.32455643.32455644-.7902231.32455644-.45155378-.0141023-.77611021-.33866667-.32455643-.32455643-.31044356-.80433332 0-.45155643.32455379-.77611286.32455643-.3245538.7902231-.31044356z"
      fill="#a37cd3" />
  </g>
</svg>